<?xml version="1.0" encoding="UTF-8" standalone="no"?>
<svg
   xmlns:dc="http://purl.org/dc/elements/1.1/"
   xmlns:cc="http://creativecommons.org/ns#"
   xmlns:rdf="http://www.w3.org/1999/02/22-rdf-syntax-ns#"
   xmlns:svg="http://www.w3.org/2000/svg"
   xmlns="http://www.w3.org/2000/svg"
   xmlns:sodipodi="http://sodipodi.sourceforge.net/DTD/sodipodi-0.dtd"
   xmlns:inkscape="http://www.inkscape.org/namespaces/inkscape"
   width="117"
   height="117"
   version="1.1"
   id="svg3753"
   sodipodi:docname="Close.svg"
   inkscape:version="0.92.4 (5da689c313, 2019-01-14)">
  <metadata
     id="metadata3759">
    <rdf:RDF>
      <cc:Work
         rdf:about="">
        <dc:format>image/svg+xml</dc:format>
        <dc:type
           rdf:resource="http://purl.org/dc/dcmitype/StillImage" />
      </cc:Work>
    </rdf:RDF>
  </metadata>
  <defs
     id="defs3757" />
  <sodipodi:namedview
     pagecolor="#ffffff"
     bordercolor="#666666"
     borderopacity="1"
     objecttolerance="10"
     gridtolerance="10"
     guidetolerance="10"
     inkscape:pageopacity="0"
     inkscape:pageshadow="2"
     inkscape:window-width="1920"
     inkscape:window-height="1017"
     id="namedview3755"
     showgrid="false"
     inkscape:zoom="7.2478632"
     inkscape:cx="58.5"
     inkscape:cy="58.5"
     inkscape:window-x="-8"
     inkscape:window-y="-8"
     inkscape:window-maximized="1"
     inkscape:current-layer="svg3753" />
  <title
     id="title3737" />
  <desc
     id="desc3739" />
  <g
     id="g3744">
    <title
       id="title3741">background</title>
    <rect
       fill="none"
       id="canvas_background"
       height="402"
       width="582"
       y="-1"
       x="-1" />
  </g>
  <g
     id="g3751">
    <title
       id="title3746">Layer 1</title>
    <path
       d="m58.5,116.6c32,0 58.1,-26 58.1,-58.1c0,-32.1 -26,-58 -58.1,-58c-32.1,0 -58,26 -58,58c0,32 26,58.1 58,58.1zm0,-108c27.5,0 49.9,22.4 49.9,49.9c0,27.5 -22.4,49.9 -49.9,49.9c-27.5,0 -49.9,-22.4 -49.9,-49.9c0,-27.5 22.4,-49.9 49.9,-49.9z"
       fill="#646464"
       id="Shape" />
    <path
       d="m64,87.5c0.8,0.8 1.8,1.2 2.9,1.2c1,0 2.1,-0.4 2.9,-1.2c1.6,-1.6 1.6,-4.2 0,-5.8l-23.5,-23.5l23.5,-23.5c1.6,-1.6 1.6,-4.2 0,-5.8c-1.6,-1.6 -4.2,-1.6 -5.8,0l-26.4,26.4c-0.8,0.8 -1.2,1.8 -1.2,2.9c0,1.1 0.4,2.1 1.2,2.9l26.4,26.4z"
       fill="#646464"
       id="path3749" />
  </g>
  <path
     style="stroke-width:0.1379717;fill:#ececec"
     d="M 56.637382,108.30423 C 40.927519,107.59334 26.965827,99.971144 17.718749,87.057141 14.43886,82.476613 11.639647,76.399801 10.22699,70.793278 9.1147014,66.378852 8.7622585,63.425361 8.7616676,58.513797 8.7611966,54.598556 8.8570304,53.330091 9.3975259,50.097524 11.718248,36.217865 20.207874,23.680072 32.423349,16.092137 c 6.295983,-3.9109 13.426712,-6.3255376 21.247642,-7.1949655 2.043863,-0.2272098 7.614155,-0.2272098 9.658018,0 10.012653,1.1130745 18.686926,4.6754955 26.44872,10.8621765 1.829245,1.458033 6.064768,5.707802 7.54746,7.572845 5.643621,7.098982 9.207011,15.279992 10.486751,24.076062 0.75237,5.171241 0.6292,11.007306 -0.34216,16.211674 -3.78232,20.265178 -19.928669,36.289551 -40.234076,39.930141 -3.023527,0.54209 -7.789748,0.88125 -10.598322,0.75416 z M 68.828484,88.284211 c 1.864464,-0.942651 2.689667,-3.178016 1.934675,-5.240769 -0.278479,-0.760846 -0.859261,-1.3664 -12.312531,-12.83769 L 46.430364,58.166575 58.385336,46.198677 c 8.557635,-8.566888 12.042188,-12.143183 12.261876,-12.584714 0.414497,-0.833059 0.503325,-2.089755 0.217264,-3.073772 -0.316092,-1.087319 -1.339921,-2.192149 -2.403292,-2.593433 -1.027517,-0.387754 -2.553942,-0.328809 -3.476514,0.134252 -0.44622,0.223968 -4.467161,4.160096 -14.293994,13.992492 -11.217591,11.223941 -13.730177,13.804752 -13.990828,14.37072 -0.443771,0.96359 -0.453538,2.487035 -0.02211,3.449292 0.257226,0.573722 2.602095,2.984619 13.928694,14.320905 7.490668,7.497074 13.833633,13.765127 14.095477,13.929003 1.187191,0.743011 2.824931,0.798887 4.126579,0.140789 z"
     id="path3937"
     inkscape:connector-curvature="0" />
  <path
     style="fill:#b3b3b3;stroke-width:0.1379717"
     d="M 54.440208,116.52112 C 35.143853,115.14093 17.86712,104.27909 8.1420661,87.41361 -4.2254532,65.96548 -1.4791667,38.657691 14.905854,20.157665 24.888091,8.8869055 38.174494,2.1205261 53.119104,0.6967662 56.403945,0.3838223 62.858692,0.48423342 65.883986,0.89533882 73.039485,1.8676953 79.2441,3.8094386 85.385162,6.9982608 c 5.483296,2.8472686 9.878108,6.0929452 14.442562,10.6661882 10.212206,10.231871 16.116406,23.714359 16.749116,38.24731 0.71808,16.493863 -5.3511,32.084585 -17.020071,43.721747 -6.585429,6.567484 -14.14534,11.220164 -22.982477,14.144364 -6.940357,2.29656 -14.785458,3.26887 -22.134084,2.74325 z m 7.233141,-8.27016 c 4.191717,-0.31265 7.075121,-0.81617 10.725841,-1.87301 16.399765,-4.74754 29.44501,-17.899962 34.10189,-34.382069 0.62019,-2.195055 1.12369,-4.645308 1.46622,-7.135386 0.30418,-2.211279 0.42698,-8.271177 0.21598,-10.657654 C 107.29065,44.107288 103.2605,34.322265 96.840072,26.66203 95.550346,25.123253 91.531154,21.120847 90.040605,19.890959 84.68257,15.469915 77.722336,11.951355 70.917453,10.22376 66.206393,9.0277357 63.575817,8.7126227 58.362028,8.7197621 53.306531,8.7266848 50.918228,9.014365 46.289505,10.173943 28.647774,14.593513 14.58611,28.662057 10.141013,46.340121 9.1045148,50.462256 8.6952784,53.829792 8.6933971,58.25231 c -0.00189,4.435861 0.2949052,7.353856 1.1282057,11.092265 1.4467652,6.490578 4.5646492,13.355904 8.4109662,18.520263 7.633011,10.248661 18.199039,17.026792 30.366245,19.480002 4.636154,0.93477 8.811236,1.22412 13.074535,0.90612 z"
     id="path3941"
     inkscape:connector-curvature="0" />
  <path
     style="fill:#b3b3b3;stroke-width:0.1379717"
     d="M 65.467571,88.443355 C 64.823173,88.242947 63.863273,87.313384 50.900953,74.337105 41.560605,64.986698 36.937686,60.264985 36.759568,59.893514 c -0.364119,-0.759385 -0.372219,-2.697515 -0.01403,-3.357101 0.41683,-0.767571 4.48898,-4.939683 16.390395,-16.792748 8.426658,-8.392423 11.528739,-11.398393 11.995777,-11.624116 0.904658,-0.437227 2.550706,-0.427416 3.509211,0.02092 0.851529,0.398297 1.73923,1.342908 2.065942,2.198392 0.351116,0.919383 0.247115,2.607893 -0.206578,3.353883 -0.179971,0.295921 -5.697976,5.925293 -12.262232,12.509716 l -11.935008,11.971676 11.73022,11.759456 c 6.451621,6.467699 11.918089,12.007804 12.147708,12.311341 0.553457,0.731627 0.736481,1.313523 0.736481,2.341529 0,1.63058 -0.696466,2.830598 -2.07979,3.583496 -0.903619,0.491813 -2.302816,0.605322 -3.370092,0.273401 z"
     id="path3943"
     inkscape:connector-curvature="0" />
</svg>
