<?xml version="1.0" encoding="UTF-8" standalone="no"?>
<svg
   xmlns:dc="http://purl.org/dc/elements/1.1/"
   xmlns:cc="http://creativecommons.org/ns#"
   xmlns:rdf="http://www.w3.org/1999/02/22-rdf-syntax-ns#"
   xmlns:svg="http://www.w3.org/2000/svg"
   xmlns="http://www.w3.org/2000/svg"
   xmlns:sodipodi="http://sodipodi.sourceforge.net/DTD/sodipodi-0.dtd"
   xmlns:inkscape="http://www.inkscape.org/namespaces/inkscape"
   height="117px"
   version="1.1"
   viewBox="0 0 117 117"
   width="117px"
   id="svg3973"
   sodipodi:docname="Open.svg"
   inkscape:version="0.92.4 (5da689c313, 2019-01-14)">
  <metadata
     id="metadata3977">
    <rdf:RDF>
      <cc:Work
         rdf:about="">
        <dc:format>image/svg+xml</dc:format>
        <dc:type
           rdf:resource="http://purl.org/dc/dcmitype/StillImage" />
      </cc:Work>
    </rdf:RDF>
  </metadata>
  <sodipodi:namedview
     pagecolor="#ffffff"
     bordercolor="#666666"
     borderopacity="1"
     objecttolerance="10"
     gridtolerance="10"
     guidetolerance="10"
     inkscape:pageopacity="0"
     inkscape:pageshadow="2"
     inkscape:window-width="958"
     inkscape:window-height="1008"
     id="namedview3975"
     showgrid="false"
     inkscape:zoom="8.0683761"
     inkscape:cx="49.292944"
     inkscape:cy="63.15791"
     inkscape:window-x="-7"
     inkscape:window-y="0"
     inkscape:window-maximized="0"
     inkscape:current-layer="svg3973" />
  <title
     id="title3962" />
  <desc
     id="desc3964" />
  <defs
     id="defs3966" />
  <g
     fill="none"
     fill-rule="evenodd"
     id="Page-1"
     stroke="none"
     stroke-width="1">
    <g
       fill-rule="nonzero"
       id="right-arrow">
      <path
         d="M58.5,116.6 C90.5,116.6 116.6,90.6 116.6,58.5 C116.6,26.4 90.5,0.4 58.5,0.4 C26.5,0.4 0.4,26.5 0.4,58.5 C0.4,90.5 26.5,116.6 58.5,116.6 Z M58.5,8.6 C86,8.6 108.4,31 108.4,58.5 C108.4,86 86,108.4 58.5,108.4 C31,108.4 8.6,86 8.6,58.5 C8.6,31 31,8.6 58.5,8.6 Z"
         fill="#4A4A4A"
         id="Shape" />
      <path
         d="M45.1,87.5 C45.9,88.3 46.9,88.7 48,88.7 C49,88.7 50.1,88.3 50.9,87.5 L77.3,61.1 C78.1,60.3 78.5,59.3 78.5,58.2 C78.5,57.1 78.1,56.1 77.3,55.3 L50.9,28.9 C49.3,27.3 46.7,27.3 45.1,28.9 C43.5,30.5 43.5,33.1 45.1,34.7 L68.6,58.2 L45.1,81.7 C43.5,83.3 43.5,85.9 45.1,87.5 Z"
         fill="#17AB13"
         id="path3969" />
    </g>
  </g>
  <path
     style="fill:#b3b3b3;stroke-width:0.49576271"
     d="M 51.807203,116.46036 C 43.848407,115.42878 36.396516,112.98061 29.927616,109.27225 24.134124,105.95107 20.89381,103.40675 16.212378,98.502954 -3.4352962,77.92203 -5.166778,45.68197 12.162272,23.090281 31.105487,-1.605777 66.216462,-7.0585222 91.912399,10.705063 112.8907,25.20735 122.03039,52.876311 113.81816,77.021274 106.79085,97.682398 88.770265,112.85502 67.423729,116.08353 c -4.335167,0.65567 -12.03228,0.8414 -15.616526,0.37683 z m 11.11445,-8.60204 C 92.555249,104.81735 112.92208,77.52652 107.0526,48.724453 103.90269,33.267589 93.03603,19.706666 78.529126,13.128923 72.062407,10.196772 66.574482,9.0901638 58.5,9.0901638 c -6.172434,0 -7.884333,0.1835928 -12.110798,1.2988252 -14.426545,3.806715 -26.366292,13.717363 -32.74282,27.178346 -2.923949,6.172517 -4.2396261,11.641581 -4.5705819,18.99919 -0.6491656,14.431871 4.6613379,27.532966 15.2680729,37.666579 8.691627,8.303936 18.380598,12.597146 31.181551,13.816636 0.954343,0.0909 1.878851,0.20101 2.054465,0.24465 0.175609,0.0436 2.579404,-0.15259 5.341764,-0.43607 z"
     id="path3979"
     inkscape:connector-curvature="0" />
  <path
     style="fill:#b3b3b3;stroke-width:0.49576271"
     d="m 46.282919,88.547395 c -1.489241,-0.600984 -2.6558,-2.437814 -2.6558,-4.181749 0,-1.269004 1.734138,-3.217361 12.256821,-13.770913 L 68.140762,58.301955 56.166326,46.279579 C 48.686033,38.769338 44.069107,33.758952 43.86474,32.929636 c -0.693258,-2.813225 1.297082,-5.365229 4.18441,-5.365229 1.640851,0 2.714462,0.958207 16.338494,14.582239 l 14.582239,14.582239 -0.305845,1.884701 C 78.394906,60.272055 76.7349,62.125912 64.834817,74.057747 57.39696,81.515452 50.709013,87.937106 49.972713,88.328094 c -1.504555,0.798946 -2.157294,0.83774 -3.689794,0.219301 z"
     id="path3981"
     inkscape:connector-curvature="0" />
  <path
     style="fill:#ececec;stroke-width:0.12394068"
     d="m 56.307987,108.08716 c -4.964844,-0.57747 -8.025095,-1.11239 -10.90678,-1.90648 C 36.97682,103.85924 30.039949,99.778739 23.594643,93.353338 16.334058,86.115175 11.651779,77.383292 9.9043496,67.822598 8.3593848,59.369647 9.0709727,49.788985 11.809442,42.172854 c 2.419701,-6.729581 6.310957,-12.933641 11.342995,-18.084809 3.648395,-3.734765 7.195844,-6.459274 11.651842,-8.948837 4.772345,-2.666306 10.971208,-4.846198 16.092288,-5.6590155 2.042405,-0.3241701 11.831135,-0.3223274 14.459089,0.00272 5.289909,0.6543035 9.549706,1.9502605 14.56303,4.4305055 11.505453,5.6921 20.475974,15.641045 25.027884,27.757695 1.2547,3.339852 2.17142,7.121861 2.69568,11.12127 0.40073,3.057016 0.39684,8.727141 -0.008,11.745785 -0.78389,5.844147 -2.25268,10.722139 -4.73954,15.740466 -7.247783,14.625557 -21.29983,24.790086 -37.600974,27.198596 -2.03496,0.30067 -6.695505,0.75684 -7.498411,0.73395 -0.306753,-0.009 -0.976033,-0.0646 -1.487288,-0.12402 z m -6.61797,-19.550291 c 0.936351,-0.49907 3.764922,-3.132413 10.334895,-9.62158 5.817458,-5.745909 13.78594,-13.807372 15.502618,-15.683514 2.625481,-2.869366 3.08116,-3.617004 3.349177,-5.495051 L 79.033713,56.636548 67.391983,45.029533 C 52.749453,30.430666 50.721042,28.486326 49.554034,27.9309 c -0.787446,-0.374775 -0.952161,-0.408617 -1.799831,-0.36979 -1.691927,0.0775 -2.993716,0.939986 -3.703812,2.453926 -0.272951,0.581937 -0.322383,0.859582 -0.322383,1.810706 0,1.107036 0.0072,1.133932 0.495763,1.849035 1.146016,1.677451 5.697608,6.446645 16.404909,17.189194 l 7.37145,7.395718 -9.852931,9.955977 C 45.026805,81.473281 44.142743,82.428482 43.671574,83.856142 c -0.27396,0.830104 0.05728,2.158215 0.813933,3.263479 1.208688,1.765564 3.420809,2.36795 5.20451,1.417248 z"
     id="path4047"
     inkscape:connector-curvature="0" />
</svg>
